<svg xmlns="http://www.w3.org/2000/svg" width="128" height="128"><g fill="#FF3901" fill-rule="nonzero"><path d="M24.717 105.524c.405 0 .81-.05 1.164-.253 18.773-6.78 38.76-10.474 58.444-10.474 2.783 0 5.667.05 8.45.253 1.974.101 3.593-1.468 3.593-3.441 0-1.822-1.366-3.34-3.239-3.39-2.985-.152-5.92-.203-8.956-.203-20.696 0-41.493 3.745-60.62 10.88-1.366.505-2.277 1.77-2.277 3.137 0 2.074 1.72 3.491 3.441 3.491ZM23.958 90.585c.354 0 .658-.05 1.012-.202 21.91-6.832 45.591-10.525 68.514-10.525 3.289 0 6.628.05 9.867.253 1.973.1 3.542-1.468 3.542-3.492 0-1.771-1.366-3.238-3.239-3.34-3.44-.151-6.932-.202-10.373-.202-23.833 0-47.868 3.795-70.335 10.829-1.467.455-2.429 1.77-2.429 3.238 0 2.024 1.67 3.44 3.441 3.44ZM92.37 25.524c8.906 0 15.332 7.186 15.332 18.925 0 12.245-6.83 20.038-17.609 20.038-9.31 0-15.281-6.882-15.281-18.267 0-11.74 6.426-20.696 17.558-20.696Zm-.607 7.945c-5.161 0-8.349 4.048-8.349 12.093 0 7.438 2.732 10.98 7.337 10.98 5.161 0 8.35-3.896 8.35-11.941 0-7.439-2.733-11.132-7.338-11.132ZM57.709 28.56c8.956 0 14.674 6.933 14.674 17.913 0 12.094-6.932 21.151-18.419 21.151-8.905 0-14.522-6.932-14.522-18.014 0-11.992 7.033-21.05 18.267-21.05Zm-.86 7.995c-5.415 0-8.805 4.15-8.805 12.296 0 7.287 2.631 10.88 7.034 10.88 5.363 0 8.652-4.2 8.652-12.398 0-7.185-2.58-10.778-6.881-10.778ZM30.384 69.496c2.43 0 4.15-1.77 4.15-4.3V35.24c0-2.682-1.063-4.302-3.593-4.302-2.378 0-4.099 1.468-5.516 3.087-2.074 2.53-4.3 3.896-7.843 5.769-1.619.86-2.783 2.125-2.783 3.947 0 2.074 1.518 3.643 3.593 3.643 2.884-.05 6.224-1.72 8.045-4.2V65.65c0 2.327 1.57 3.845 3.947 3.845Z"/></g></svg>
